<?xml version="1.0" encoding="utf-8"?>
<!-- Generator: Fusion 360, Shaper Origin Export Add-In, Version 1.5.0  -->
<svg enable-background="new 0 0 35 30" height="30cm" shaper:fusionaddin="version:1.5.0" version="1.1" viewBox="0 0 35 30" width="35cm" x="0cm" xml:space="preserve" xmlns="http://www.w3.org/2000/svg" xmlns:shaper="http://www.shapertools.com/namespaces/shaper" xmlns:xlink="http://www.w3.org/1999/xlink" y="0cm"><path d="M33,28 A2,2 0 0,1 31,30 L0,30 A2,2 90 0,1 -2,28 L-2,2 A2,2 180 0,1 0,-0 L31,0 A2,2 270 0,1 33,2 L33,28z" fill="rgb(0,0,0)" shaper:cutDepth="0" shaper:pathType="exterior" transform="matrix(1,0,0,-1,2,30)" vector-effect="non-scaling-stroke" /><path d="M7.2625,1 a0.1875,0.1875 0 1,1 0.375,0 a0.1875,0.1875 0 1,1 -0.375,0z" fill="rgb(255,255,255)" shaper:cutDepth="0" shaper:pathType="interior" stroke="rgb(0,0,0)" transform="matrix(1,0,0,-1,2,30)" vector-effect="non-scaling-stroke" /><path d="M-1.3375,2.55 a0.1875,0.1875 0 1,1 0.375,0 a0.1875,0.1875 0 1,1 -0.375,0z" fill="rgb(255,255,255)" shaper:cutDepth="0" shaper:pathType="interior" stroke="rgb(0,0,0)" transform="matrix(1,0,0,-1,2,30)" vector-effect="non-scaling-stroke" /><path d="M-1.3375,27.45 a0.1875,0.1875 0 1,1 0.375,0 a0.1875,0.1875 0 1,1 -0.375,0z" fill="rgb(255,255,255)" shaper:cutDepth="0" shaper:pathType="interior" stroke="rgb(0,0,0)" transform="matrix(1,0,0,-1,2,30)" vector-effect="non-scaling-stroke" /><path d="M23.3625,29 a0.1875,0.1875 0 1,1 0.375,0 a0.1875,0.1875 0 1,1 -0.375,0z" fill="rgb(255,255,255)" shaper:cutDepth="0" shaper:pathType="interior" stroke="rgb(0,0,0)" transform="matrix(1,0,0,-1,2,30)" vector-effect="non-scaling-stroke" /><path d="M31.9625,27.45 a0.1875,0.1875 0 1,1 0.375,0 a0.1875,0.1875 0 1,1 -0.375,0z" fill="rgb(255,255,255)" shaper:cutDepth="0" shaper:pathType="interior" stroke="rgb(0,0,0)" transform="matrix(1,0,0,-1,2,30)" vector-effect="non-scaling-stroke" /><path d="M23.3625,1 a0.1875,0.1875 0 1,1 0.375,0 a0.1875,0.1875 0 1,1 -0.375,0z" fill="rgb(255,255,255)" shaper:cutDepth="0" shaper:pathType="interior" stroke="rgb(0,0,0)" transform="matrix(1,0,0,-1,2,30)" vector-effect="non-scaling-stroke" /><path d="M31.9625,15 a0.1875,0.1875 0 1,1 0.375,0 a0.1875,0.1875 0 1,1 -0.375,0z" fill="rgb(255,255,255)" shaper:cutDepth="0" shaper:pathType="interior" stroke="rgb(0,0,0)" transform="matrix(1,0,0,-1,2,30)" vector-effect="non-scaling-stroke" /><path d="M31.9625,2.55 a0.1875,0.1875 0 1,1 0.375,0 a0.1875,0.1875 0 1,1 -0.375,0z" fill="rgb(255,255,255)" shaper:cutDepth="0" shaper:pathType="interior" stroke="rgb(0,0,0)" transform="matrix(1,0,0,-1,2,30)" vector-effect="non-scaling-stroke" /><path d="M-1.3375,15 a0.1875,0.1875 0 1,1 0.375,0 a0.1875,0.1875 0 1,1 -0.375,0z" fill="rgb(255,255,255)" shaper:cutDepth="0" shaper:pathType="interior" stroke="rgb(0,0,0)" transform="matrix(1,0,0,-1,2,30)" vector-effect="non-scaling-stroke" /><path d="M7.2625,29 a0.1875,0.1875 0 1,1 0.375,0 a0.1875,0.1875 0 1,1 -0.375,0z" fill="rgb(255,255,255)" shaper:cutDepth="0" shaper:pathType="interior" stroke="rgb(0,0,0)" transform="matrix(1,0,0,-1,2,30)" vector-effect="non-scaling-stroke" /></svg>