<?xml version="1.0" encoding="utf-8"?>
<!-- Generator: Fusion 360, Shaper Origin Export Add-In, Version 1.5.0  -->
<svg enable-background="new 0 0 20.3 1.5" height="1.5cm" shaper:fusionaddin="version:1.5.0" version="1.1" viewBox="0 0 20.3 1.5" width="20.3cm" x="0cm" xml:space="preserve" xmlns="http://www.w3.org/2000/svg" xmlns:shaper="http://www.shapertools.com/namespaces/shaper" xmlns:xlink="http://www.w3.org/1999/xlink" y="0cm"><path d="M1.7,1.5 L-2,1.5 -2,0.75 -2.3,0.75 -2.3,1.5 -6,1.5 -6,0.75 -6.3,0.75 -6.3,1.5 -10,1.5 -10,0.75 -10.3,0.75 -10.3,1.5 -14,1.5 -14,0.75 -14.3,0.75 -14.3,1.5 -16.3,1.5 -16.3,0.75 -16,0.75 -16,0 -12.3,0 -12.3,0.75 -12,0.75 -12,0 -8.3,0 -8.3,0.75 -8,0.75 -8,0 -4.3,0 -4.3,0.75 -4,0.75 -4,0 -0.3,0 -0.3,0.75 0,0.75 0,0 3.7,0 3.7,0.75 4,0.75 4,1.5 2,1.5 2,0.75 1.7,0.75 1.7,1.5z" fill="rgb(0,0,0)" shaper:cutDepth="0" shaper:pathType="exterior" transform="matrix(1,0,0,-1,16.3,1.5)" vector-effect="non-scaling-stroke" /></svg>